<svg width="40" height="40" viewBox="0 0 40 40" fill="none" xmlns="http://www.w3.org/2000/svg">
<path d="M35.5556 40H4.44444C1.98985 40 0 38.2091 0 36V8C0 5.79086 1.98985 4 4.44444 4H8.88889V0H13.3333V4H26.6667V0H31.1111V4H35.5556C38.0102 4 40 5.79086 40 8V36C40 38.2091 38.0102 40 35.5556 40ZM4.44444 16V36H35.5556V16H4.44444ZM4.44444 8V12H35.5556V8H4.44444ZM31.1111 32H26.6667V28H31.1111V32ZM22.2222 32H17.7778V28H22.2222V32ZM13.3333 32H8.88889V28H13.3333V32ZM31.1111 24H26.6667V20H31.1111V24ZM22.2222 24H17.7778V20H22.2222V24ZM13.3333 24H8.88889V20H13.3333V24Z" fill="white"/>
</svg>
