<svg width="280" height="377" viewBox="0 0 280 377" fill="none" xmlns="http://www.w3.org/2000/svg">
<path d="M276.348 170.648C276.16 173.215 275.517 175.646 274.503 177.881L273.896 179.122L272.328 182.317L270.915 185.202L246.327 235.353L246.178 235.652L246.153 235.71C245.842 236.413 245.648 237.174 245.591 237.977C245.582 238.1 245.58 238.223 245.577 238.346L245.001 266.782L244.995 266.782C244.989 267.075 244.977 267.368 244.953 267.661C244.888 268.522 244.758 269.366 244.563 270.186C243.335 275.422 239.589 279.682 234.723 281.764C232.356 282.775 229.72 283.276 226.985 283.12C224.784 282.994 222.715 282.46 220.85 281.597C216.683 279.671 213.512 276.095 212.144 271.77C211.703 270.373 211.454 268.895 211.42 267.365L212.036 236.954C212.056 235.975 212.099 234.997 212.173 234.006C212.311 232.16 212.538 230.343 212.854 228.551C213.7 223.753 215.171 219.168 217.182 214.884L217.987 213.257L230.461 187.825L230.455 187.819C230.796 187.146 231.013 186.396 231.07 185.599C231.299 182.516 229.09 179.841 226.04 179.373L225.738 179.331L225.732 179.331L223.866 179.09L108.468 164.104L84.8159 161.036L84.5434 161C73.7138 159.543 65.5304 150.919 64.6863 140.394C64.4383 137.098 64.3456 133.757 64.414 130.386C65.6039 71.6805 114.795 24.2669 174.284 24.4793C223.931 24.6566 265.059 57.9483 276.619 103.081C276.861 104.02 277.086 104.965 277.304 105.915C277.451 106.86 277.515 107.833 277.495 108.83C277.302 118.349 269.328 126.035 259.682 126.001C251.585 125.972 244.883 120.508 243.054 113.121C243.011 112.921 242.961 112.722 242.918 112.522C235.645 81.5382 207.71 58.5232 173.888 58.4024C137.612 58.2729 107.039 84.526 101.145 118.881C101.105 119.086 101.072 119.291 101.038 119.502C101.017 119.637 100.99 119.777 100.976 119.918C100.961 120.053 100.947 120.181 100.938 120.316C100.652 124.173 103.197 127.541 106.843 128.509L108.982 128.787L109.752 128.889L242.575 146.135L257.571 148.082L257.76 148.106C265.664 149.16 272.064 154.307 274.871 161.193C276.054 164.093 276.6 167.302 276.348 170.648Z" fill="white"/>
<path d="M180.003 4.27248C179.961 4.8522 179.45 5.29551 178.859 5.26411C176.82 5.16894 174.769 5.12059 172.704 5.11319C93.0946 4.82782 27.2699 68.5003 25.6771 147.333C24.4707 207.044 60.4564 258.324 112.583 279.814C112.975 279.985 113.234 280.384 113.195 280.829C113.154 281.409 112.642 281.852 112.051 281.821C112.016 281.821 111.98 281.815 111.951 281.815C111.951 281.815 111.951 281.815 111.945 281.815C111.892 281.803 111.833 281.791 111.78 281.773C111.774 281.767 111.756 281.767 111.745 281.761C49.0756 266.249 3.48754 209.815 4.84284 142.737C6.43564 63.9039 72.2604 0.231331 151.87 0.516705C161.203 0.550162 170.311 1.46726 179.114 3.17399C179.633 3.25199 180.013 3.75122 180.003 4.27248Z" fill="white"/>
<path d="M146.68 319.898C142.319 319.882 138.281 317.219 136.788 312.953C134.883 307.496 137.859 301.479 143.439 299.516L193.293 281.971C198.873 280.008 204.941 282.837 206.847 288.294C208.752 293.751 205.776 299.767 200.196 301.731L150.341 319.275C149.13 319.7 147.894 319.902 146.68 319.898Z" fill="white"/>
<path d="M171.948 376.3C167.587 376.285 163.549 373.622 162.056 369.355C160.151 363.898 163.127 357.882 168.707 355.918L218.562 338.374C224.141 336.41 230.21 339.239 232.115 344.696C234.02 350.153 231.044 356.169 225.464 358.133L175.61 375.677C174.392 376.103 173.156 376.304 171.948 376.3Z" fill="white"/>
<path d="M151.926 350.708C147.563 350.692 143.523 348.028 142.03 343.758C140.123 338.297 143.101 332.276 148.684 330.311L224.543 303.605C230.126 301.64 236.197 304.471 238.103 309.932C240.01 315.393 237.032 321.414 231.449 323.379L155.596 350.079C154.378 350.511 153.141 350.712 151.926 350.708Z" fill="white"/>
</svg>
