<svg width="280" height="377" viewBox="0 0 280 377" fill="none" xmlns="http://www.w3.org/2000/svg">
<path d="M276.407 170.664C276.221 173.231 275.579 175.661 274.567 177.896L273.96 179.136L272.394 182.331L270.982 185.215L246.416 235.355L246.268 235.653L246.243 235.712C245.932 236.414 245.739 237.175 245.682 237.978C245.674 238.101 245.671 238.224 245.669 238.347L245.122 266.779L245.116 266.779C245.11 267.072 245.099 267.365 245.075 267.658C245.011 268.519 244.882 269.363 244.688 270.183C243.463 275.418 239.717 279.677 234.847 281.757C232.478 282.768 229.84 283.268 227.101 283.111C224.897 282.986 222.825 282.451 220.956 281.588C216.782 279.662 213.603 276.086 212.229 271.761C211.786 270.364 211.535 268.886 211.499 267.356L212.084 236.95C212.103 235.971 212.146 234.992 212.218 234.002C212.355 232.156 212.58 230.34 212.894 228.548C213.736 223.75 215.204 219.167 217.213 214.884L218.018 213.257L230.48 187.83L230.474 187.824C230.814 187.152 231.031 186.402 231.088 185.605C231.314 182.523 229.099 179.848 226.045 179.379L225.742 179.337L225.736 179.337L223.868 179.096L108.309 164.092L84.6238 161.02L84.3509 160.984C73.5062 159.525 65.3034 150.902 64.4471 140.377C64.1952 137.082 64.0989 133.741 64.1637 130.371C65.2928 71.6737 114.496 24.2753 174.06 24.4979C223.769 24.6838 264.984 57.9779 276.606 103.107C276.85 104.046 277.075 104.99 277.295 105.941C277.443 106.885 277.508 107.858 277.489 108.854C277.306 118.372 269.331 126.056 259.672 126.02C251.565 125.99 244.848 120.525 243.01 113.139C242.966 112.94 242.916 112.74 242.872 112.541C235.558 81.5595 207.564 58.5428 173.699 58.4162C137.377 58.2804 106.794 84.5246 100.929 118.874C100.889 119.079 100.856 119.284 100.822 119.495C100.801 119.629 100.775 119.77 100.76 119.91C100.746 120.045 100.731 120.174 100.723 120.309C100.44 124.165 102.993 127.533 106.644 128.502L108.786 128.779L109.557 128.882L242.565 146.148L257.582 148.098L257.772 148.122C265.686 149.177 272.1 154.324 274.917 161.21C276.105 164.11 276.656 167.318 276.407 170.664Z" fill="#FFB703"/>
<path d="M179.913 4.30145C179.873 4.8811 179.361 5.32429 178.769 5.29279C176.726 5.19728 174.671 5.14858 172.604 5.14083C92.8591 4.8419 26.9913 68.4968 25.4803 147.321C24.3358 207.026 60.4372 258.307 112.675 279.803C113.068 279.975 113.327 280.374 113.289 280.819C113.248 281.399 112.736 281.842 112.144 281.81C112.109 281.81 112.073 281.804 112.044 281.804C112.044 281.804 112.044 281.804 112.038 281.804C111.985 281.792 111.926 281.78 111.873 281.762C111.867 281.757 111.849 281.756 111.837 281.751C49.0457 266.229 3.32015 209.793 4.60588 142.722C6.11692 63.8972 71.9846 0.242322 151.729 0.541255C161.078 0.576301 170.203 1.49486 179.022 3.20292C179.542 3.281 179.923 3.78025 179.913 4.30145Z" fill="#FFB703"/>
<path d="M146.593 319.887C142.229 319.871 138.187 317.208 136.689 312.943C134.777 307.487 137.748 301.473 143.329 299.511L193.193 281.981C198.774 280.019 204.849 282.848 206.761 288.304C208.672 293.759 205.701 299.773 200.121 301.735L150.256 319.266C149.045 319.691 147.808 319.892 146.593 319.887Z" fill="#1E96FC"/>
<path d="M171.86 376.29C167.497 376.274 163.454 373.611 161.956 369.345C160.044 363.89 163.016 357.876 168.596 355.914L218.461 338.384C224.041 336.422 230.116 339.251 232.028 344.706C233.94 350.162 230.969 356.176 225.388 358.138L175.524 375.668C174.306 376.093 173.069 376.294 171.86 376.29Z" fill="#1E96FC"/>
<path d="M151.838 350.693C147.473 350.677 143.428 348.012 141.929 343.744C140.017 338.284 142.989 332.266 148.573 330.303L224.443 303.619C230.026 301.656 236.104 304.487 238.017 309.946C239.93 315.406 236.957 321.424 231.374 323.387L155.509 350.065C154.291 350.496 153.054 350.698 151.838 350.693Z" fill="#1E96FC"/>
</svg>
