<svg width="40" height="49" viewBox="0 0 40 49" fill="none" xmlns="http://www.w3.org/2000/svg">
<path d="M19.9999 49C16.3912 46.0678 13.0462 42.8532 9.99995 39.3898C5.42855 34.1887 2.52474e-06 26.4429 2.52474e-06 19.0617C-0.00404935 11.3528 4.86925 4.40121 12.3458 1.45094C19.8224 -1.49932 28.4286 0.133233 34.1484 5.58679C37.9097 9.15382 40.0167 14.0059 39.9999 19.0617C39.9999 26.4429 34.5713 34.1887 29.9998 39.3898C26.9536 42.8532 23.6086 46.0678 19.9999 49ZM19.9999 10.8967C16.9376 10.8967 14.108 12.453 12.5769 14.9792C11.0457 17.5055 11.0457 20.618 12.5769 23.1442C14.108 25.6705 16.9376 27.2267 19.9999 27.2267C24.7337 27.2267 28.5713 23.5711 28.5713 19.0617C28.5713 14.5523 24.7337 10.8967 19.9999 10.8967Z" fill="white"/>
</svg>
