<svg width="100" height="100" viewBox="0 0 100 100" fill="none" xmlns="http://www.w3.org/2000/svg">
<rect x="100" y="100" width="100" height="100" rx="50" transform="rotate(-180 100 100)" fill="#1E96FC"/>
<path d="M42.0122 65.7468L42.0163 65.751C42.4825 66.2171 43.0817 66.438 43.673 66.438C44.2937 66.438 44.8717 66.1792 45.3049 65.7749L45.3175 65.7631L45.3297 65.751L57.0082 54.0725C58.1359 52.9645 58.7376 51.4695 58.7376 49.9043C58.7376 48.3289 58.1111 46.839 57.0114 45.7392L45.3297 34.0576C44.4196 33.1475 42.9264 33.1475 42.0163 34.0576L42.0163 34.0576L42.0122 34.0618C41.5773 34.5018 41.3334 35.0956 41.3334 35.7143C41.3334 36.333 41.5773 36.9267 42.0122 37.3668L42.0121 37.3668L42.0163 37.371L53.698 49.0526C54.1675 49.5221 54.1675 50.2864 53.698 50.7559L42.0163 62.4376L42.0163 62.4376L42.0122 62.4418C41.5773 62.8818 41.3334 63.4756 41.3334 64.0943C41.3334 64.713 41.5773 65.3067 42.0122 65.7468Z" fill="white" stroke="white" stroke-width="2"/>
</svg>
