<svg width="100" height="100" viewBox="0 0 100 100" fill="none" xmlns="http://www.w3.org/2000/svg">
<rect width="100" height="100" rx="50" fill="#1E96FC"/>
<path d="M57.988 34.2532L57.9838 34.249C57.5176 33.7829 56.9184 33.562 56.3271 33.562C55.7064 33.562 55.1284 33.8208 54.6952 34.2251L54.6826 34.2369L54.6704 34.249L42.992 45.9275C41.8642 47.0355 41.2625 48.5305 41.2625 50.0957C41.2625 51.6711 41.8891 53.161 42.9888 54.2608L54.6704 65.9424C55.5805 66.8525 57.0737 66.8525 57.9838 65.9424L57.9838 65.9424L57.988 65.9382C58.4229 65.4982 58.6667 64.9044 58.6667 64.2857C58.6667 63.667 58.4229 63.0733 57.988 62.6332L57.988 62.6332L57.9838 62.629L46.3021 50.9474C45.8327 50.4779 45.8327 49.7136 46.3021 49.2441L57.9838 37.5624L57.9838 37.5624L57.988 37.5582C58.4229 37.1182 58.6667 36.5244 58.6667 35.9057C58.6667 35.287 58.4229 34.6933 57.988 34.2532Z" fill="white" stroke="white" stroke-width="2"/>
</svg>
